HIERARCHY
ROOT Hips
{
	OFFSET 0.000000 0.000000 0.000000 
	CHANNELS 6 Xposition Yposition Zposition Zrotation Yrotation Xrotation
	JOINT LeftUpLeg
	{
		OFFSET 1.363060 -1.794630 0.839290 
		CHANNELS 3 Zrotation Yrotation Xrotation
		JOINT LeftLeg
		{
			OFFSET 2.448110 -6.726130 0.000000 
			CHANNELS 3 Zrotation Yrotation Xrotation
			JOINT LeftFoot
			{
				OFFSET 2.562200 -7.039590 0.000000 
				CHANNELS 3 Zrotation Yrotation Xrotation
				JOINT LeftToeBase
				{
					OFFSET 0.157640 -0.433110 2.322550 
					CHANNELS 3 Zrotation Yrotation Xrotation
					End Site
					{
						OFFSET 0.000000 0.000000 0.000000 
					}
				}
			}
		}
	}
	JOINT RightUpLeg
	{
		OFFSET -1.305520 -1.794630 0.839290 
		CHANNELS 3 Zrotation Yrotation Xrotation
		JOINT RightLeg
		{
			OFFSET -2.542530 -6.985550 0.000000 
			CHANNELS 3 Zrotation Yrotation Xrotation
			JOINT RightFoot
			{
				OFFSET -2.568260 -7.056230 0.000000 
				CHANNELS 3 Zrotation Yrotation Xrotation
				JOINT RightToeBase
				{
					OFFSET -0.164730 -0.452590 2.363150 
					CHANNELS 3 Zrotation Yrotation Xrotation
					End Site
					{
						OFFSET 0.000000 0.000000 0.000000 
					}
				}
			}
		}
	}
	JOINT Spine
	{
		OFFSET 0.028270 2.035590 -0.193380 
		CHANNELS 3 Zrotation Yrotation Xrotation
		JOINT Spine1
		{
			OFFSET 0.056720 2.048850 -0.042750 
			CHANNELS 3 Zrotation Yrotation Xrotation
			JOINT Neck1
			{
				OFFSET -0.054170 1.746240 0.172020 
				CHANNELS 3 Zrotation Yrotation Xrotation
				JOINT Head
				{
					OFFSET 0.104070 1.761360 -0.123970 
					CHANNELS 3 Zrotation Yrotation Xrotation
					End Site
					{
						OFFSET 0.000000 0.000000 0.000000 
					}
				}
			}
			JOINT LeftArm
			{
				OFFSET 3.362410 1.200890 -0.311210 
				CHANNELS 3 Zrotation Yrotation Xrotation
				JOINT LeftForeArm
				{
					OFFSET 4.983000 -0.000000 -0.000000 
					CHANNELS 3 Zrotation Yrotation Xrotation
					JOINT LeftHand
					{
						OFFSET 3.483560 -0.000000 -0.000000 
						CHANNELS 3 Zrotation Yrotation Xrotation
						JOINT LeftHandIndex1
						{
							OFFSET 0.715260 -0.000000 -0.000000 
							CHANNELS 3 Zrotation Yrotation Xrotation
							End Site
							{
								OFFSET 0.000000 0.000000 0.000000 
							}
						}
					}
				}
			}
			JOINT RightArm
			{
				OFFSET -3.136600 1.374050 -0.404650 
				CHANNELS 3 Zrotation Yrotation Xrotation
				JOINT RightForeArm
				{
					OFFSET -5.241900 -0.000000 -0.000000 
					CHANNELS 3 Zrotation Yrotation Xrotation
					JOINT RightHand
					{
						OFFSET -3.444170 -0.000000 -0.000000 
						CHANNELS 3 Zrotation Yrotation Xrotation
						JOINT RightHandIndex1
						{
							OFFSET -0.622530 -0.000000 -0.000000 
							CHANNELS 3 Zrotation Yrotation Xrotation
							End Site
							{
								OFFSET 0.000000 0.000000 0.000000 
							}
						}
					}
				}
			}
		}
	}
}
MOTION
Frames: 16
Frame Time: 0.041667
-9.207007 17.446514 -15.746290 -169.137097 86.326423 -170.302509 -13.975290 -15.425854 1.312725 -1.557340 8.694503 22.927981 -0.400758 12.471099 -24.004604 4.169300 -12.382300 -37.098200 23.577236 -4.419919 16.576135 2.138708 -0.396498 3.652293 0.462962 -11.471072 -12.827916 -1.579200 7.928300 -22.496400 1.620014 -1.818700 -1.864606 2.209243 -1.067917 -4.144803 3.811198 -2.598218 19.106220 1.491500 -1.141100 15.250100 -84.687318 8.771000 50.096489 118.863769 -50.383387 -84.851926 -1.178878 0.309254 -41.033933 -7.125000 0.000000 0.000000 83.019306 -6.085361 52.172361 -114.628174 51.557934 -78.510610 1.197324 -1.316014 5.064403 7.125000 0.000000 0.000000 
-9.217057 17.445928 -15.747364 -168.600280 86.371821 -169.739270 -13.944698 -15.449220 1.333740 -1.569468 8.664805 22.860245 -0.408195 12.528101 -24.046929 4.146800 -12.353200 -36.993300 23.634737 -4.319576 16.517481 2.141810 -0.399612 3.644433 0.473959 -11.544167 -12.758104 -1.617000 8.018100 -22.769000 1.634202 -1.782343 -1.911751 2.218500 -1.051363 -4.179392 3.776954 -2.569990 19.197763 1.489300 -1.138900 15.287100 -84.960068 7.940003 49.663542 119.189624 -50.288474 -85.203555 -1.165958 0.289199 -41.795148 -7.125000 0.000000 0.000000 83.250538 -5.642573 51.827859 -114.887119 51.488644 -78.810733 1.204637 -1.292986 4.150977 7.125000 0.000000 0.000000 
-9.227596 17.446709 -15.747461 -167.945724 86.443456 -169.045165 -13.850937 -15.206015 1.225206 -1.564558 8.638818 22.812002 -0.422199 12.480857 -23.861838 4.162300 -12.373300 -37.065500 23.703823 -4.184019 16.450140 2.145030 -0.402786 3.635011 0.483757 -11.605253 -12.685530 -1.635000 8.060400 -22.897500 1.653160 -1.712398 -1.954815 2.251598 -1.018473 -4.211688 3.768689 -2.562565 19.272292 1.500100 -1.143300 15.315800 -85.172061 7.043734 49.307976 119.419829 -50.219159 -85.462753 -1.156384 0.276468 -42.226601 -7.125000 0.000000 0.000000 83.372219 -5.105571 51.389237 -114.883087 51.493060 -78.855044 1.209914 -1.279665 3.270146 7.125000 0.000000 0.000000 
-9.238525 17.449148 -15.745412 -166.954642 86.566880 -167.998155 -13.697726 -14.718380 1.013415 -1.545577 8.612263 22.777511 -0.440996 12.359497 -23.510267 4.213800 -12.439600 -37.305400 23.806735 -3.973753 16.366635 2.149860 -0.406828 3.621693 0.494355 -11.671563 -12.602472 -1.643800 8.081100 -22.960600 1.678172 -1.596578 -1.995236 2.315710 -0.964581 -4.245133 3.817963 -2.597817 19.331622 1.542200 -1.162200 15.339900 -85.305273 6.082844 49.041144 119.505523 -50.190896 -85.583518 -1.150465 0.270339 -42.447697 -7.125000 0.000000 0.000000 83.415209 -4.479724 50.866732 -114.668964 51.555264 -78.698311 1.213989 -1.273208 2.486123 7.125000 0.000000 0.000000 
-9.249747 17.453052 -15.743460 -165.747423 86.690716 -166.716661 -13.515042 -14.117682 0.732985 -1.518602 8.587788 22.754760 -0.463515 12.206630 -23.067432 4.293400 -12.540900 -37.673300 23.927143 -3.742542 16.257005 2.155310 -0.412761 3.605967 0.506574 -11.751331 -12.510241 -1.654800 8.106800 -23.038800 1.704026 -1.469287 -2.036985 2.391083 -0.907465 -4.283973 3.937352 -2.685689 19.378572 1.624500 -1.199700 15.362100 -85.367677 5.068106 48.865547 119.407597 -50.215531 -85.526867 -1.148151 0.270179 -42.580765 -7.125000 0.000000 0.000000 83.320256 -3.566061 50.419870 -114.109111 51.705038 -78.198716 1.219461 -1.272427 1.710227 7.125000 0.000000 0.000000 
-9.260188 17.457833 -15.743460 -164.534912 86.786561 -165.426051 -13.342750 -13.533971 0.437835 -1.489865 8.570414 22.748001 -0.485265 12.058159 -22.631165 4.380900 -12.650700 -38.074700 24.040597 -3.534272 16.134361 2.160221 -0.419716 3.590355 0.519873 -11.840384 -12.412163 -1.673400 8.149900 -23.170300 1.727487 -1.355232 -2.079469 2.463538 -0.858156 -4.326378 4.108681 -2.816574 19.424445 1.737100 -1.252800 15.388600 -85.377858 4.014999 48.780672 119.101312 -50.299958 -85.265719 -1.149714 0.275777 -42.691130 -7.125000 0.000000 0.000000 83.119177 -2.481207 50.037755 -113.293299 51.916306 -77.440759 1.226746 -1.276798 0.972049 7.125000 0.000000 0.000000 
-9.268775 17.462810 -15.745607 -163.468310 86.875104 -164.295925 -13.217640 -13.044873 0.184725 -1.463827 8.563811 22.762225 -0.500192 11.940163 -22.297706 4.451400 -12.738100 -38.395700 24.124810 -3.346002 16.025640 2.163834 -0.424998 3.576557 0.532877 -11.925326 -12.312113 -1.696200 8.202300 -23.330100 1.748090 -1.252192 -2.118714 2.528505 -0.813431 -4.365424 4.282342 -2.963522 19.489229 1.849000 -1.311200 15.430500 -85.356812 2.944444 48.786850 118.582623 -50.443332 -84.791687 -1.155966 0.287277 -42.772114 -7.125000 0.000000 0.000000 82.909852 -1.420230 49.632041 -112.438104 52.134372 -76.639220 1.235694 -1.284052 0.342773 7.125000 0.000000 0.000000 
-9.274337 17.467201 -15.750974 -162.979652 86.967662 -163.779227 -13.177176 -12.710951 0.015154 -1.446307 8.570625 22.791025 -0.505640 11.864781 -22.113829 4.487100 -12.781900 -38.557300 24.139662 -3.202614 15.963069 2.164454 -0.424667 3.568154 0.542924 -11.983297 -12.224977 -1.710400 8.234900 -23.429900 1.759377 -1.162114 -2.150795 2.567896 -0.770773 -4.393494 4.393621 -3.091638 19.595254 1.920300 -1.361500 15.500100 -85.320566 1.880763 48.878437 117.865724 -50.637936 -84.114294 -1.167817 0.304768 -42.776336 -7.125000 0.000000 0.000000 82.743964 -0.467288 49.187208 -111.630452 52.338081 -75.879030 1.246069 -1.293329 -0.179645 7.125000 0.000000 0.000000 
-9.275800 17.470323 -15.759366 -163.386425 87.085111 -164.202509 -13.238252 -12.529588 -0.051925 -1.439870 8.589484 22.823672 -0.499860 11.822497 -22.079978 4.481400 -12.774800 -38.531400 24.061180 -3.110985 15.973753 2.161326 -0.415578 3.567512 0.547753 -11.996987 -12.167789 -1.702500 8.216800 -23.374500 1.757054 -1.074604 -2.171822 2.571364 -0.722409 -4.401765 4.392749 -3.174379 19.755215 1.920400 -1.394100 15.604600 -85.282613 0.845932 49.041830 116.981676 -50.871020 -83.260594 -1.185972 0.328150 -42.667248 -7.125000 0.000000 0.000000 82.673293 0.307477 48.676449 -110.961559 52.506822 -75.253917 1.256360 -1.303141 -0.591650 7.125000 0.000000 0.000000 
-9.272580 17.471787 -15.770002 -164.764202 87.234281 -165.643137 -13.391301 -12.461610 -0.024567 -1.443385 8.616830 22.851736 -0.482237 11.789209 -22.160450 4.437900 -12.721300 -38.334100 23.891242 -3.070840 16.066704 2.154827 -0.397209 3.575142 0.546576 -11.962321 -12.152860 -1.666300 8.133400 -23.119900 1.740173 -0.978429 -2.179723 2.536813 -0.662291 -4.384060 4.268905 -3.203935 19.961161 1.843100 -1.407100 15.738600 -85.257390 -0.142321 49.256075 115.970959 -51.127990 -82.268654 -1.210369 0.356871 -42.456912 -7.125000 0.000000 0.000000 82.709464 0.901990 48.100599 -110.463908 52.633811 -74.800388 1.264618 -1.312123 -0.909859 7.125000 0.000000 0.000000 
-9.265164 17.471397 -15.782004 -166.843128 87.397651 -167.817862 -13.601895 -12.457071 0.069907 -1.452764 8.647504 22.872931 -0.454085 11.740557 -22.303619 4.367400 -12.633900 -38.013200 23.661844 -3.076290 16.226515 2.146481 -0.372634 3.589178 0.540403 -11.892145 -12.180236 -1.608500 7.998000 -22.708000 1.713350 -0.868282 -2.175319 2.471970 -0.589855 -4.339414 4.051039 -3.193226 20.183662 1.707500 -1.407100 15.883500 -85.263884 -1.073622 49.497144 114.885195 -51.392876 -81.189402 -1.239828 0.389682 -42.205356 -7.125000 0.000000 0.000000 82.820856 1.369397 47.480963 -110.114561 52.724431 -74.499999 1.269481 -1.319377 -1.160827 7.125000 0.000000 0.000000 
-9.254918 17.469445 -15.794495 -169.055749 87.539836 -170.137727 -13.821183 -12.479923 0.196280 -1.462294 8.677216 22.893296 -0.419304 11.668071 -22.462797 4.284600 -12.529800 -37.632900 23.425412 -3.116976 16.416865 2.138444 -0.347667 3.605817 0.532101 -11.812673 -12.235565 -1.546500 7.849600 -22.258200 1.685783 -0.747476 -2.162657 2.391625 -0.511683 -4.273749 3.785406 -3.166322 20.385062 1.543300 -1.405300 16.014600 -85.324342 -1.946300 49.745745 113.781712 -51.650529 -80.081312 -1.272341 0.424636 -41.989255 -7.125000 0.000000 0.000000 82.946307 1.785907 46.843088 -109.853901 52.792663 -74.296108 1.270872 -1.324541 -1.369409 7.125000 0.000000 0.000000 
-9.243306 17.466615 -15.806887 -170.748291 87.625530 -171.926491 -14.003532 -12.514472 0.322405 -1.466979 8.703428 22.923494 -0.384660 11.587177 -22.607190 4.207600 -12.431600 -37.276500 23.236551 -3.178993 16.594707 2.132796 -0.328402 3.620726 0.525084 -11.754354 -12.294653 -1.500700 7.737800 -21.920600 1.667411 -0.625950 -2.147537 2.311426 -0.438456 -4.197056 3.507848 -3.144967 20.537077 1.372700 -1.411000 16.112300 -85.455923 -2.768374 49.990244 112.717287 -51.887855 -79.003927 -1.305597 0.459238 -41.860359 -7.125000 0.000000 0.000000 83.020837 2.217852 46.207210 -109.613203 52.854265 -74.120528 1.269880 -1.327638 -1.552109 7.125000 0.000000 0.000000 
-9.231890 17.463883 -15.818792 -171.498388 87.640284 -172.746581 -14.122637 -12.560050 0.426220 -1.464797 8.726788 22.972319 -0.359080 11.533599 -22.722060 4.157600 -12.367300 -37.043900 23.129481 -3.246595 16.727531 2.130708 -0.318317 3.630791 0.522868 -11.739779 -12.332983 -1.485500 7.700300 -21.807400 1.664487 -0.513877 -2.135353 2.242678 -0.378409 -4.120694 3.232614 -3.137537 20.631736 1.203000 -1.426200 16.170200 -85.662387 -3.554803 50.224486 111.737937 -52.095983 -78.007557 -1.337534 0.490907 -41.822584 -7.125000 0.000000 0.000000 82.998864 2.701258 45.586609 -109.335326 52.922803 -73.914479 1.268104 -1.329013 -1.720045 7.125000 0.000000 0.000000 
-9.221741 17.462029 -15.829818 -171.337556 87.597968 -172.628637 -14.180468 -12.614353 0.498743 -1.456821 8.749079 23.041135 -0.350622 11.546037 -22.800391 4.155000 -12.363800 -37.031400 23.103612 -3.306032 16.804979 2.131993 -0.316888 3.635225 0.526945 -11.776118 -12.335928 -1.503500 7.744700 -21.941300 1.675938 -0.416801 -2.128873 2.189398 -0.333480 -4.053451 2.961389 -3.137825 20.679818 1.032600 -1.444700 16.195300 -85.927745 -4.324754 50.442499 110.860328 -52.273782 -77.113424 -1.366864 0.517756 -41.839356 -7.125000 0.000000 0.000000 82.870296 3.241410 44.992877 -108.983769 53.006352 -73.638191 1.267021 -1.329219 -1.884041 7.125000 0.000000 0.000000 
-9.213057 17.461346 -15.839576 -170.734985 87.534161 -172.050236 -14.204735 -12.664071 0.542522 -1.446550 8.772133 23.121052 -0.363151 11.642510 -22.836882 4.209900 -12.434600 -37.287400 23.124125 -3.350581 16.842087 2.135195 -0.320011 3.635776 0.536295 -11.851967 -12.305422 -1.544600 7.845100 -22.244400 1.693543 -0.335518 -2.127784 2.149917 -0.299607 -3.999911 2.703742 -3.134069 20.700807 0.865400 -1.457000 16.201800 -86.220257 -5.097836 50.632720 110.069330 -52.426872 -76.311241 -1.393084 0.539087 -41.866789 -7.125000 0.000000 0.000000 82.658542 3.826801 44.440982 -108.538730 53.108833 -73.267209 1.267653 -1.328978 -2.059034 7.125000 0.000000 0.000000 
